<?xml version="1.0" encoding="utf-8"?>
<svg version="1.1" id="Layer_1" xmlns="http://www.w3.org/2000/svg" xmlns:xlink="http://www.w3.org/1999/xlink" x="0px" y="0px" viewBox="0 0 24 24" enable-background="new 0 0 24 24" xml:space="preserve">
	<path fill="#b69ccb" d="M17,21.3l-3.5-1.7c-1-0.5-2.1-0.5-3.1,0L7,21.3c-3,1.5-6.1-1.7-4.6-4.7l0.8-1.5c0.1-0.2,0.3-0.4,0.5-0.5
	l12.6-5.7c0.5-0.2,1.1,0,1.4,0.5l3.8,7.2C23.1,19.6,20,22.8,17,21.3z" />
	<path fill="#b69ccb" d="M15.6,7.7l-8.3,3.7c-0.9,0.4-1.9-0.6-1.4-1.5l3-5.8c1.3-2.4,4.8-2.4,6.1,0l1.1,2C16.4,6.8,16.2,7.4,15.6,7.7
	z" />
</svg>