<?xml version="1.0" standalone="no"?>
<!DOCTYPE svg PUBLIC "-//W3C//DTD SVG 20010904//EN"
 "http://www.w3.org/TR/2001/REC-SVG-20010904/DTD/svg10.dtd">
<svg version="1.0" xmlns="http://www.w3.org/2000/svg"
 width="700.000000pt" height="700.000000pt" viewBox="0 0 700.000000 700.000000"
 preserveAspectRatio="xMidYMid meet">
<metadata>
Created by potrace 1.14, written by Peter Selinger 2001-2017
</metadata>
<g transform="translate(0.000000,700.000000) scale(0.100000,-0.100000)"
fill="#000000" stroke="none">
<path d="M3389 6326 c-2 -2 -28 -6 -57 -10 -221 -26 -467 -161 -613 -334 -82
-98 -91 -114 -325 -567 -59 -115 -148 -286 -196 -380 -49 -93 -107 -206 -129
-250 -22 -44 -85 -165 -140 -270 -241 -463 -244 -468 -243 -548 1 -87 25 -147
85 -211 63 -69 136 -100 234 -101 84 0 102 6 338 114 34 16 82 38 107 49 97
43 527 234 555 247 17 7 57 25 90 40 33 15 74 33 90 40 17 7 183 82 370 165
187 83 358 159 380 169 141 63 322 144 395 176 263 116 301 139 352 214 56 81
68 208 29 310 -15 39 -79 160 -221 416 -9 17 -45 82 -80 145 -103 188 -199
305 -325 395 -177 127 -350 184 -576 191 -64 2 -118 2 -120 0z"/>
<path d="M4795 4417 c-29 -9 -429 -187 -603 -268 -45 -22 -84 -39 -86 -39 -3
0 -37 -15 -78 -34 -40 -18 -215 -98 -388 -176 -173 -78 -344 -156 -380 -172
-36 -17 -128 -58 -205 -93 -77 -34 -266 -120 -420 -190 -154 -70 -300 -136
-325 -147 -85 -38 -710 -321 -835 -378 -38 -17 -83 -38 -100 -45 -304 -138
-340 -156 -380 -199 -45 -47 -104 -151 -290 -511 -236 -455 -106 -999 310
-1299 205 -148 443 -211 690 -182 153 18 229 50 825 347 316 158 603 296 636
307 167 55 335 67 494 37 144 -28 150 -30 605 -250 83 -40 272 -132 420 -205
311 -152 339 -165 420 -191 191 -62 307 -68 541 -25 46 8 191 69 254 106 303
178 493 504 494 845 0 113 -2 139 -19 225 -19 95 -86 250 -207 475 -30 55 -92
172 -137 260 -46 88 -87 165 -91 170 -4 6 -40 73 -80 150 -120 229 -270 516
-305 580 -18 33 -56 105 -85 160 -29 55 -72 136 -95 180 -23 44 -71 134 -105
200 -101 193 -121 226 -154 263 -35 38 -97 78 -148 93 -46 14 -137 18 -173 6z"/>
</g>
</svg>
